# xmcd CD database file
#
# Track frame offsets:
#	150
#	12023
#	36202
#	50267
#	75020
#	88257
#	102246
#	114056
#	128874
#	141772
#	159713
#	179105
#	191858
#	212534
#	223960
#	236196
#	249999
#	266543
#	278567
#	300285
#	318310
#
# Disc length: 4451 seconds
#
# Revision: 0
# Processed by: cddbd v1.5.2PL0 Copyright (c) Steve Scherf et al.
# Submitted via: CDex 1.51
#
DISCID=1e116115
DTITLE=Emmylou Harris - Songbird: Rare Tracks And Forgotten Gems [CD3)
DYEAR=2007
DGENRE=Country
TTITLE0=Falling In A Deep Hole
TTITLE1=1917 (with Linda Ronstadt)
TTITLE2=Palms Of Victory (with Dolly Parton and Linda Ronstadt)
TTITLE3=Softly And Tenderly (with Dolly Parton and Linda Ronstadt)
TTITLE4=My Dear Companion (with Dolly Parton and Linda Ronstadt)
TTITLE5=Mary Danced With Soldiers (with The Nitty Gritty Dirt Band)
TTITLE6=I Don't Love You Much Do I (with Guy Clark)
TTITLE7=All I Left Behind
TTITLE8=I Remember You (with Steve Earle)
TTITLE9=Golden Ring (with Linda Ronstadt, Anna McGarrigle and Kate McGarrigle)
TTITLE10=Sonny (with Dolores Keane and Mary Black)
TTITLE11=In The Garden
TTITLE12=Love Still Remains
TTITLE13=Snake Song
TTITLE14=Hobo's Lullaby
TTITLE15=Wondering
TTITLE16=Immigrant Eyes
TTITLE17=Juanita (with Sheryl Crow)
TTITLE18=She (with The Pretenders)
TTITLE19=Sin City (with Beck)
TTITLE20=Wheels (with The Seldom Scene)
EXTD=YEAR: 2007
EXTT0=
EXTT1=
EXTT2=
EXTT3=
EXTT4=
EXTT5=
EXTT6=
EXTT7=
EXTT8=
EXTT9=
EXTT10=
EXTT11=
EXTT12=
EXTT13=
EXTT14=
EXTT15=
EXTT16=
EXTT17=
EXTT18=
EXTT19=
EXTT20=
PLAYORDER=
